<svg xmlns="http://www.w3.org/2000/svg" viewBox="0 0 300 60" fill="none">
  <style>
    .tp-text { fill: #0d0f14; }
    .tp-icon { stroke: #0d0f14; }
    @media (prefers-color-scheme: dark) {
      .tp-text { fill: #ffffff; }
      .tp-icon { stroke: #ffffff; }
    }
  </style>
  <g transform="translate(85, 18)">
    <g class="tp-icon" stroke-width="2" stroke-linecap="round" stroke-linejoin="round">
      <path d="M15 21v-8a1 1 0 0 0-1-1h-4a1 1 0 0 0-1 1v8"/>
      <path d="M3 10a2 2 0 0 1 .709-1.528l7-6a2 2 0 0 1 2.582 0l7 6A2 2 0 0 1 21 10v9a2 2 0 0 1-2 2H5a2 2 0 0 1-2-2z"/>
    </g>
    <text x="32" y="19" class="tp-text" font-family="Segoe UI, Roboto, Helvetica, Arial, sans-serif" font-size="22" font-weight="600">TPHome</text>
  </g>
</svg>